<?xml version="1.0" encoding="UTF-8"?>
<!DOCTYPE svg PUBLIC "-//W3C//DTD SVG 1.1//EN" "http://www.w3.org/Graphics/SVG/1.1/DTD/svg11.dtd">
<svg xmlns="http://www.w3.org/2000/svg" version="1.1" width="100px" height="37px" style="shape-rendering:geometricPrecision; text-rendering:geometricPrecision; image-rendering:optimizeQuality; fill-rule:evenodd; clip-rule:evenodd" xmlns:xlink="http://www.w3.org/1999/xlink">
<g><path style="opacity:0.418" fill="#fefffe" d="M 11.5,-0.5 C 15.8333,-0.5 20.1667,-0.5 24.5,-0.5C 29.6422,2.47734 33.6422,6.644 36.5,12C 34.9546,13.9396 32.9546,15.1062 30.5,15.5C 27.8103,13.0296 24.8103,10.863 21.5,9C 12.4603,9.05037 8.96032,13.5504 11,22.5C 14.46,27.1652 18.6266,28.1652 23.5,25.5C 20.8997,22.959 20.8997,20.459 23.5,18C 28.5,17.3333 33.5,17.3333 38.5,18C 39.7691,20.1385 39.7691,22.3052 38.5,24.5C 34.1334,28.8678 29.4667,32.8678 24.5,36.5C 20.1667,36.5 15.8333,36.5 11.5,36.5C 9.23138,35.0242 6.89805,33.5242 4.5,32C 2.68589,29.5205 1.01922,27.0205 -0.5,24.5C -0.5,20.1667 -0.5,15.8333 -0.5,11.5C 0.97576,9.23138 2.47576,6.89805 4,4.5C 6.47945,2.68589 8.97945,1.01922 11.5,-0.5 Z M 14.5,0.5 C 22.7499,-0.0417902 29.0832,3.12488 33.5,10C 29.8141,12.4383 26.8141,11.7717 24.5,8C 15.1378,5.3317 9.80446,8.66503 8.5,18C 9.80446,27.335 15.1378,30.6683 24.5,28C 31.501,21.5641 31.1676,20.0641 23.5,23.5C 23.5,22.1667 23.5,20.8333 23.5,19.5C 28.1785,19.3342 32.8452,19.5008 37.5,20C 38.7836,21.2975 38.6169,22.4642 37,23.5C 36.7508,22.376 36.2508,21.376 35.5,20.5C 30.3635,34.5686 21.0302,38.4019 7.5,32C -0.2,24.7667 -1.36667,16.6 4,7.5C 6.99784,4.26226 10.4978,1.92893 14.5,0.5 Z"/></g>
<g><path style="opacity:0.382" fill="#fefffe" d="M 85.5,24.5 C 87.8632,24.2806 90.1966,23.2806 92.5,21.5C 94.3186,21.3422 95.6519,22.0089 96.5,23.5C 95.1666,24.6199 94.6666,25.9532 95,27.5C 96.3712,25.9586 97.8712,24.6253 99.5,23.5C 99.5,24.1667 99.5,24.8333 99.5,25.5C 98.1045,28.0503 95.9378,29.7169 93,30.5C 91.7202,30.3865 90.8869,29.7199 90.5,28.5C 91.3256,27.549 91.4922,26.549 91,25.5C 89.9586,27.5852 88.4586,29.2519 86.5,30.5C 85.3461,28.1441 84.0127,27.9774 82.5,30C 79.4718,31.1397 77.3051,30.3064 76,27.5C 74.4912,29.9193 72.3245,30.9193 69.5,30.5C 69.6567,29.1266 69.49,27.7932 69,26.5C 67.6598,27.8678 66.3264,29.2011 65,30.5C 63.7141,29.65 63.8808,28.4834 65.5,27C 62.4038,26.0733 60.0704,27.0733 58.5,30C 56.8659,30.4935 55.1992,30.6602 53.5,30.5C 53.6567,29.1266 53.49,27.7932 53,26.5C 51.561,28.448 49.7277,29.7814 47.5,30.5C 45.9996,30.5472 44.9996,29.8805 44.5,28.5C 45.1279,26.7419 46.1279,25.2419 47.5,24C 47.1667,23.6667 46.8333,23.3333 46.5,23C 48.3058,22.1904 49.8058,21.0238 51,19.5C 51.2787,21.1198 52.1121,22.4531 53.5,23.5C 54.1174,23.6107 54.6174,23.944 55,24.5C 58.039,20.5149 61.039,20.5149 64,24.5C 65.15,23.5761 66.15,23.5761 67,24.5C 68.9544,20.7184 71.4544,17.3851 74.5,14.5C 75.1156,17.124 74.1156,19.2907 71.5,21C 72.448,21.4828 73.448,21.6495 74.5,21.5C 73.6404,23.8155 73.1404,26.1489 73,28.5C 75.9559,24.0139 80.1226,21.6806 85.5,21.5C 85.5,22.5 85.5,23.5 85.5,24.5 Z M 53.5,23.5 C 52.0892,25.914 50.0892,27.5806 47.5,28.5C 48.0512,25.0426 50.0512,23.3759 53.5,23.5 Z M 58.5,23.5 C 59.2389,23.369 59.9056,23.5357 60.5,24C 59.3783,26.1238 57.8783,27.9571 56,29.5C 55.9717,27.2134 56.805,25.2134 58.5,23.5 Z M 85.5,24.5 C 84.1879,26.4788 82.5212,28.1455 80.5,29.5C 79.1667,28.5 79.1667,27.5 80.5,26.5C 82.0754,25.5435 83.742,24.8769 85.5,24.5 Z"/></g>
</svg>
